<?xml version="1.0" encoding="UTF-8"?>
<svg xmlns="http://www.w3.org/2000/svg" id="uuid-e4b46e9e-8675-44ef-80c7-2a0c3ad2c3c0" viewBox="0 0 210 50">
  <defs>
    <style>.uuid-bd82a766-342b-41b2-ae16-07d1e9d2c165{fill:#00aeef;}.uuid-bd82a766-342b-41b2-ae16-07d1e9d2c165,.uuid-3b9730f7-5142-4c63-a484-1f03292a47f9{stroke-width:0px;}.uuid-3b9730f7-5142-4c63-a484-1f03292a47f9{fill:#fff;}</style>
  </defs>
  <path class="uuid-bd82a766-342b-41b2-ae16-07d1e9d2c165" d="M201.96,21.53v3.08h-8.02v13.16h-5.62v-4.76h-6.38c-2.31,0-4.05-.13-5.16-.39-1.12-.25-2.11-.67-2.95-1.25-.87-.58-1.49-1.24-1.85-1.98-.36-.73-.54-1.74-.54-3v-11.09h5.48v10.97c0,.45,0,.84.03,1.16.03.31.08.57.13.76.16.36.37.65.63.84.43.33,1.02.6,1.76.79.75.15,1.74.23,2.93.23h5.92v-5.45h-7.95v-3.08h21.59ZM202.79,42.68c4.65-4.72,7.21-11,7.21-17.68s-2.56-12.96-7.21-17.68-10.83-7.32-17.4-7.32-12.75,2.6-17.4,7.32-7.21,11-7.21,17.68,2.56,12.96,7.21,17.68c4.65,4.72,10.83,7.32,17.4,7.32s12.75-2.6,17.4-7.32ZM206.28,25c0,11.7-9.37,21.22-20.89,21.22s-20.89-9.52-20.89-21.22,9.37-21.22,20.89-21.22,20.89,9.52,20.89,21.22Z"></path>
  <path class="uuid-bd82a766-342b-41b2-ae16-07d1e9d2c165" d="M120.23,23.34c-.42-.47-.63-1.07-.63-1.79,0-1.13.48-1.98,1.43-2.52.91-.51,2.35-.78,4.28-.78h8.87v2.14h-8.37c-.88,0-1.52.1-1.9.28-.36.19-.53.48-.53.9,0,.31.15.54.45.71.35.17.86.26,1.51.26h4.41c1.85,0,3.19.23,3.98.69h0c.05.03.11.07.16.11h-13.66ZM117.88,23.34v-.9h-9.22c.02-.33.1-.61.24-.85.17-.27.41-.51.71-.7.61-.37,1.5-.56,2.64-.56h5.63v-2.09h-5.69c-2.56,0-4.49.45-5.72,1.33-1.15.84-1.78,2.11-1.86,3.77h13.28,0ZM140.59,23.34h3.72v-2.98h5.16v-2.09h-14v2.09h5.12v2.98ZM95.38,23.34h3.72v-2.98h5.16v-2.09h-14v2.09h5.12v2.98ZM117.88,23.6h-13.28v.12c0,.96.21,1.8.63,2.49.42.71,1.05,1.28,1.88,1.69.65.34,1.33.58,2.04.71.69.14,1.68.21,2.96.21h5.78v-2.09h-5.63c-1.31,0-2.26-.19-2.81-.56-.51-.34-.78-.89-.8-1.66h9.25v-.92h-.02ZM95.38,23.6v5.23h3.72v-5.23h-3.72ZM140.59,23.6v5.23h3.72v-5.23h-3.72ZM134.18,23.6h-13.69c.14.12.29.22.46.31.86.49,2.23.73,4.07.73h3.93c.83,0,1.42.08,1.75.25.32.18.47.44.47.79s-.16.61-.48.76c-.37.18-1.03.26-1.96.26h-8.49v2.12h9.01c1.92,0,3.36-.26,4.28-.77.93-.52,1.4-1.34,1.4-2.45,0-.85-.25-1.53-.74-2.01h0Z"></path>
  <path class="uuid-3b9730f7-5142-4c63-a484-1f03292a47f9" d="M57.51,23.34v-5.09h4.43l4.46,5.09h-3.54l-1.79-2.04.04,2.04h-3.6ZM33.07,23.34l-.08-2.12,1.1,2.12h3.26l-2.61-5.09h-5.13v5.09h3.47,0ZM54.5,23.34v-5.09h-3.77v5.09h3.77ZM43.4,23.34l1.03-2.03-.07,2.03h3.35v-5.09h-5.09l-2.59,5.09h3.37ZM3.63,23.34v-5.09H0v5.09h3.63ZM26.67,23.34v-5.09h-3.61v5.09h3.61ZM16.21,23.34v-5.09h-3.58v5.09h3.58ZM71.74,23.34v-5.09h-3.7l.11,5.09h3.59ZM76.98,23.34c.05-.28.15-.55.3-.8l-.47-.14.03-.11.5.15c.2-.31.47-.59.8-.84l-1.52-1.02.1-.15,1.58,1.06c.41-.27.89-.49,1.42-.65l-.26-.46.09-.05.27.48c.44-.11.91-.18,1.4-.19v-2.15h.23v2.15c.51,0,.99.07,1.45.19l.26-.46.09.06-.25.44c.28.08.54.18.78.29.18.08.35.16.51.26l1.55-1.12.1.14-1.49,1.08c.33.22.61.48.82.77l.5-.17.03.1-.47.16s.05.08.07.11c.17.27.28.56.34.86h3.75c-.21-3.33-3.4-5.8-8.1-5.8s-7.91,2.47-8.12,5.8h3.71ZM85.79,23.6v.12c0,.38-.1.74-.27,1.07l.36.1-.03.11-.38-.11c-.19.33-.46.63-.79.89l1.39.94-.1.15-1.45-.97c-.42.3-.92.53-1.47.69l.18.32-.09.05-.19-.35c-.46.12-.96.19-1.48.2v2h-.23v-2c-.53-.01-1.04-.09-1.51-.22l-.2.35-.09-.06.19-.33c-.48-.15-.92-.35-1.3-.61l-1.48,1.07-.1-.14,1.43-1.03c-.32-.24-.59-.51-.79-.81l-.47.16-.03-.1.44-.15c-.23-.38-.36-.79-.36-1.22v-.12h-3.67v.09c0,3.51,3.25,6.15,8.13,6.15s8.11-2.64,8.11-6.15v-.09h-3.75ZM57.51,23.6v5.23h3.7l-.1-5.23h-3.6ZM68.16,23.6l.04,1.79-1.57-1.79h-3.54l4.59,5.23h4.07v-5.23s-3.59,0-3.59,0ZM39.9,23.6l-1.21,2.37-1.22-2.37h-3.26l2.7,5.23h3.69l2.66-5.23h-3.37,0ZM50.73,23.6v5.23h3.77v-5.23h-3.77ZM29.6,23.6v5.23h3.68l-.2-5.23s-3.48,0-3.48,0ZM23.06,23.6v.95c0,.91-.25,1.54-.74,1.88-.52.36-1.43.55-2.7.55s-2.16-.19-2.67-.56c-.5-.35-.75-.98-.75-1.87v-.95h-3.58v1.02c0,.77.08,1.37.24,1.8.14.44.37.8.69,1.08.67.51,1.51.88,2.5,1.11.96.22,2.16.34,3.57.34s2.65-.12,3.63-.35c.99-.24,1.8-.61,2.41-1.1.36-.25.62-.63.79-1.13.14-.48.21-1.07.21-1.75v-1.01h-3.61.01ZM5.23,26.68c-.47-.12-.84-.29-1.11-.5-.16-.12-.29-.3-.39-.52-.03-.12-.06-.28-.08-.47,0-.21-.02-.46-.02-.75v-.84H0v.91c0,.82.12,1.48.35,1.95.24.48.64.92,1.21,1.29.55.38,1.19.65,1.91.81.72.17,1.84.25,3.33.25h4.35v-2h-4.05c-.76,0-1.4-.05-1.87-.15v.02ZM44.35,23.6l-.18,5.23h3.54v-5.23h-3.36Z"></path>
</svg>
